<svg width="22" height="25" viewBox="0 0 22 25" fill="none" xmlns="http://www.w3.org/2000/svg">
<g clip-path="url(#clip0_64_42)">
<path d="M21.4107 23.4375H20.4286V1.17188C20.4286 0.524658 19.9009 0 19.25 0H2.75C2.09908 0 1.57143 0.524658 1.57143 1.17188V23.4375H0.589286C0.263853 23.4375 0 23.6999 0 24.0234V25H22V24.0234C22 23.6999 21.7361 23.4375 21.4107 23.4375ZM6.28571 3.71094C6.28571 3.38735 6.54957 3.125 6.875 3.125H8.83929C9.16472 3.125 9.42857 3.38735 9.42857 3.71094V5.66406C9.42857 5.98765 9.16472 6.25 8.83929 6.25H6.875C6.54957 6.25 6.28571 5.98765 6.28571 5.66406V3.71094ZM6.28571 8.39844C6.28571 8.07485 6.54957 7.8125 6.875 7.8125H8.83929C9.16472 7.8125 9.42857 8.07485 9.42857 8.39844V10.3516C9.42857 10.6751 9.16472 10.9375 8.83929 10.9375H6.875C6.54957 10.9375 6.28571 10.6751 6.28571 10.3516V8.39844ZM8.83929 15.625H6.875C6.54957 15.625 6.28571 15.3626 6.28571 15.0391V13.0859C6.28571 12.7624 6.54957 12.5 6.875 12.5H8.83929C9.16472 12.5 9.42857 12.7624 9.42857 13.0859V15.0391C9.42857 15.3626 9.16472 15.625 8.83929 15.625ZM12.5714 23.4375H9.42857V19.3359C9.42857 19.0124 9.69242 18.75 10.0179 18.75H11.9821C12.3076 18.75 12.5714 19.0124 12.5714 19.3359V23.4375ZM15.7143 15.0391C15.7143 15.3626 15.4504 15.625 15.125 15.625H13.1607C12.8353 15.625 12.5714 15.3626 12.5714 15.0391V13.0859C12.5714 12.7624 12.8353 12.5 13.1607 12.5H15.125C15.4504 12.5 15.7143 12.7624 15.7143 13.0859V15.0391ZM15.7143 10.3516C15.7143 10.6751 15.4504 10.9375 15.125 10.9375H13.1607C12.8353 10.9375 12.5714 10.6751 12.5714 10.3516V8.39844C12.5714 8.07485 12.8353 7.8125 13.1607 7.8125H15.125C15.4504 7.8125 15.7143 8.07485 15.7143 8.39844V10.3516ZM15.7143 5.66406C15.7143 5.98765 15.4504 6.25 15.125 6.25H13.1607C12.8353 6.25 12.5714 5.98765 12.5714 5.66406V3.71094C12.5714 3.38735 12.8353 3.125 13.1607 3.125H15.125C15.4504 3.125 15.7143 3.38735 15.7143 3.71094V5.66406Z" fill="#F0910C"/>
</g>
<defs>
<clipPath id="clip0_64_42">
<rect width="22" height="25" fill="white"/>
</clipPath>
</defs>
</svg>
