<svg width="23" height="23" viewBox="0 0 23 23" fill="none" xmlns="http://www.w3.org/2000/svg">
<path d="M11.5026 5.60309C8.23921 5.60309 5.60697 8.23591 5.60697 11.5C5.60697 14.7641 8.23921 17.3969 11.5026 17.3969C14.7659 17.3969 17.3982 14.7641 17.3982 11.5C17.3982 8.23591 14.7659 5.60309 11.5026 5.60309ZM11.5026 15.3338C9.3937 15.3338 7.66966 13.6145 7.66966 11.5C7.66966 9.38553 9.38857 7.66624 11.5026 7.66624C13.6166 7.66624 15.3355 9.38553 15.3355 11.5C15.3355 13.6145 13.6114 15.3338 11.5026 15.3338ZM19.0144 5.36188C19.0144 6.12658 18.3987 6.73731 17.6393 6.73731C16.8748 6.73731 16.2642 6.12144 16.2642 5.36188C16.2642 4.60231 16.8799 3.98644 17.6393 3.98644C18.3987 3.98644 19.0144 4.60231 19.0144 5.36188ZM22.9192 6.75784C22.832 4.91537 22.4112 3.28333 21.0617 1.93869C19.7174 0.594053 18.0857 0.173212 16.2437 0.0808323C14.3452 -0.0269441 8.65482 -0.0269441 6.75633 0.0808323C4.91941 0.16808 3.28773 0.588921 1.93826 1.93356C0.58879 3.2782 0.173173 4.91024 0.0808143 6.75271C-0.0269381 8.65162 -0.0269381 14.3432 0.0808143 16.2422C0.168042 18.0846 0.58879 19.7167 1.93826 21.0613C3.28773 22.4059 4.91428 22.8268 6.75633 22.9192C8.65482 23.0269 14.3452 23.0269 16.2437 22.9192C18.0857 22.8319 19.7174 22.4111 21.0617 21.0613C22.4061 19.7167 22.8268 18.0846 22.9192 16.2422C23.0269 14.3432 23.0269 8.65676 22.9192 6.75784ZM20.4665 18.2796C20.0663 19.2856 19.2915 20.0605 18.2807 20.466C16.767 21.0664 13.1753 20.9279 11.5026 20.9279C9.82984 20.9279 6.23296 21.0613 4.72443 20.466C3.71874 20.0657 2.94395 19.2907 2.53859 18.2796C1.93826 16.7656 2.0768 13.1731 2.0768 11.5C2.0768 9.8269 1.94339 6.22922 2.53859 4.72035C2.93882 3.71444 3.71361 2.93947 4.72443 2.53403C6.23809 1.93356 9.82984 2.07213 11.5026 2.07213C13.1753 2.07213 16.7722 1.93869 18.2807 2.53403C19.2864 2.93434 20.0612 3.7093 20.4665 4.72035C21.0669 6.23435 20.9283 9.8269 20.9283 11.5C20.9283 13.1731 21.0669 16.7708 20.4665 18.2796Z" fill="white"/>
</svg>
