<svg width="22" height="22" viewBox="0 0 22 22" fill="none" xmlns="http://www.w3.org/2000/svg">
<path d="M21.3722 15.5462L16.5597 13.4837C16.3541 13.3961 16.1257 13.3776 15.9087 13.4311C15.6917 13.4846 15.4979 13.6071 15.3566 13.7802L13.2254 16.3841C9.88055 14.807 7.18876 12.1152 5.61172 8.77045L8.21563 6.6392C8.38908 6.49812 8.51185 6.30438 8.56535 6.08729C8.61884 5.8702 8.60016 5.64159 8.51211 5.43608L6.44961 0.623575C6.35298 0.402032 6.18207 0.221149 5.96636 0.112118C5.75065 0.00308581 5.50366 -0.0272611 5.26797 0.0263096L0.799219 1.05756C0.571987 1.11003 0.36925 1.23798 0.224097 1.42051C0.0789444 1.60304 -5.2345e-05 1.82939 2.60228e-08 2.0626C2.60228e-08 13.0841 8.9332 22.0001 19.9375 22.0001C20.1708 22.0002 20.3972 21.9213 20.5799 21.7761C20.7625 21.631 20.8905 21.4282 20.943 21.2009L21.9742 16.7321C22.0274 16.4953 21.9965 16.2473 21.8866 16.0309C21.7767 15.8144 21.5948 15.643 21.3722 15.5462Z" fill="#F0910C"/>
</svg>
